<?xml version="1.0" standalone="no"?>
<!DOCTYPE svg PUBLIC "-//W3C//DTD SVG 20010904//EN"
 "http://www.w3.org/TR/2001/REC-SVG-20010904/DTD/svg10.dtd">
<svg version="1.0" xmlns="http://www.w3.org/2000/svg"
 width="500.000000pt" height="500.000000pt" viewBox="0 0 500.000000 500.000000"
 preserveAspectRatio="xMidYMid meet">
<metadata>
Created by potrace 1.14, written by Peter Selinger 2001-2017
</metadata>
<g transform="translate(0.000000,500.000000) scale(0.100000,-0.100000)"
fill="#000000" stroke="none">
<path d="M2972 3575 c-45 -13 -85 -23 -87 -24 -25 -4 -55 -14 -56 -20 -1 -9
-5 -28 -20 -96 -7 -33 -14 -66 -15 -74 -1 -7 -7 -34 -13 -60 -6 -25 -13 -58
-15 -74 -3 -15 -7 -35 -10 -45 -3 -9 -7 -35 -11 -57 -3 -22 -7 -47 -10 -55 -8
-29 -17 -75 -18 -97 -1 -13 -5 -23 -10 -23 -4 0 -6 -4 -3 -8 3 -4 1 -26 -4
-48 -5 -21 -11 -52 -14 -69 -3 -16 -10 -44 -15 -62 -5 -17 -7 -34 -4 -36 8 -9
-27 -67 -41 -67 -11 0 -11 9 0 58 7 31 14 58 14 60 0 1 0 3 1 5 0 1 2 11 4 22
4 28 14 82 26 133 5 23 12 59 15 80 3 20 8 40 11 44 2 5 6 25 9 45 2 21 6 47
8 58 4 26 -12 57 -25 49 -6 -3 -18 4 -26 16 -16 23 -15 23 -173 4 -25 -3 -54
-7 -65 -8 -11 -1 -29 -7 -40 -12 -11 -6 -40 -10 -65 -9 -39 2 -113 -13 -160
-32 -8 -4 -17 -7 -20 -7 -18 -3 -112 -81 -143 -118 -35 -43 -94 -152 -103
-189 -2 -10 -7 -29 -10 -41 -3 -13 -6 -29 -6 -36 -1 -7 -17 4 -37 26 -20 22
-51 50 -69 62 l-32 22 114 86 c86 65 115 93 116 110 0 12 -4 22 -9 22 -5 0
-22 10 -38 23 -15 13 -37 22 -48 21 -20 -2 -131 -15 -150 -18 -17 -2 -87 -54
-134 -98 l-43 -42 6 40 c11 71 24 140 41 214 3 14 8 44 12 68 6 42 -1 49 -39
43 -5 0 -8 6 -8 14 0 28 -46 26 -165 -5 -65 -17 -121 -32 -123 -35 -5 -4 -41
-156 -47 -195 -3 -20 -30 -155 -60 -295 -2 -11 -11 -54 -19 -95 -23 -111 -25
-120 -38 -180 -6 -30 -12 -62 -14 -70 -1 -8 -5 -26 -8 -40 -4 -14 -9 -41 -12
-60 -3 -19 -7 -42 -9 -50 -17 -60 -15 -79 7 -86 13 -3 31 -15 41 -26 15 -16
27 -18 65 -12 47 6 47 6 -35 -35 -126 -64 -243 -189 -243 -260 0 -18 70 -81
90 -81 6 0 30 10 53 22 63 33 171 33 262 0 38 -13 79 -31 90 -38 12 -8 42 -20
67 -28 45 -13 48 -13 82 10 19 13 37 24 39 24 2 0 2 -26 -1 -57 -12 -118 -8
-180 12 -202 11 -12 25 -21 32 -21 7 0 17 -7 22 -16 5 -9 25 -18 44 -21 30 -4
40 0 62 23 26 29 41 90 31 134 -16 78 -15 136 4 166 19 32 46 40 55 17 5 -11
0 -257 -5 -288 -6 -36 23 -125 41 -125 5 0 15 -6 22 -14 53 -52 124 -48 151 9
18 38 15 128 -7 218 -23 95 -10 179 27 173 7 -1 28 -13 47 -26 25 -18 48 -25
82 -25 27 0 48 -4 49 -10 0 -5 0 -30 0 -55 -1 -56 13 -81 64 -116 50 -34 92
-35 118 -3 20 25 20 38 1 200 -5 47 -4 57 11 63 10 3 27 -2 42 -14 14 -11 34
-20 44 -20 11 0 19 -4 19 -10 0 -5 7 -7 15 -4 14 6 20 -6 16 -30 -6 -31 14
-67 52 -93 59 -40 83 -45 109 -24 21 18 22 17 46 -10 13 -16 30 -29 38 -29 8
0 14 -5 14 -10 0 -21 47 -34 79 -21 42 18 55 57 46 139 -8 72 -8 109 0 121 2
5 26 6 53 3 41 -3 52 0 79 22 18 16 35 43 43 71 13 45 26 63 37 51 6 -6 6 -42
-1 -166 -2 -35 0 -74 5 -86 10 -28 90 -84 119 -84 27 0 90 61 91 89 1 12 2 29
2 39 1 9 -5 52 -12 94 -22 126 -3 154 135 193 357 104 534 329 558 712 4 49 2
52 -25 62 -16 5 -29 14 -29 19 0 6 -7 13 -16 16 -17 7 -52 -12 -89 -47 -30
-28 -96 -64 -132 -72 l-33 -7 0 46 c0 34 4 46 15 46 21 0 131 55 174 86 46 35
109 103 117 126 3 10 9 18 13 18 14 0 34 117 28 160 -6 48 -32 82 -96 127 -79
55 -202 56 -318 1 -100 -47 -206 -194 -234 -326 -7 -31 -13 -58 -14 -60 -1 -1
-18 12 -36 30 -19 18 -47 42 -63 53 l-29 21 54 39 c30 22 56 42 59 45 3 3 21
17 40 31 90 68 103 95 50 106 -17 3 -29 8 -26 11 13 12 -26 33 -52 28 -15 -4
-47 -8 -72 -11 -88 -9 -115 -23 -218 -119 l-33 -31 6 30 c3 17 8 45 10 64 3
18 7 37 10 41 3 4 8 25 11 46 3 22 7 44 8 49 1 6 5 16 9 23 5 6 6 12 4 12 -2
0 -1 18 3 39 8 44 0 63 -26 67 -10 2 -21 10 -26 18 -12 21 -47 19 -146 -9z
m892 -423 c-15 -27 -36 -55 -46 -61 -16 -10 -15 -3 8 41 14 29 34 61 42 71 28
31 25 0 -4 -51z m-1529 -154 c-6 -16 -15 -65 -20 -98 -2 -14 -4 -25 -5 -25 -2
0 -4 -9 -6 -20 -1 -11 -5 -31 -8 -45 -16 -72 -19 -87 -21 -110 -4 -39 -21 -73
-49 -99 -31 -29 -37 -25 -38 25 -1 99 44 268 84 319 5 6 17 22 29 38 21 28 42
37 34 15z m760 -145 c-3 -26 -9 -51 -12 -57 -4 -5 -7 -37 -8 -70 -3 -82 20
-126 88 -171 67 -44 100 -54 171 -49 62 3 101 21 164 71 l42 34 28 -18 c15
-11 43 -24 62 -30 38 -11 132 -10 168 1 30 10 28 1 -10 -48 -49 -63 -105 -113
-163 -146 -58 -33 -167 -77 -211 -84 -16 -2 -29 -5 -29 -6 0 -2 -30 -7 -95
-15 -94 -12 -277 -8 -475 10 -22 2 -80 6 -130 10 -49 3 -115 7 -145 10 -138
11 -311 18 -495 19 l-200 1 57 38 58 39 31 -23 c23 -16 50 -23 98 -26 84 -6
159 21 217 76 37 35 43 37 57 24 8 -8 39 -23 68 -32 62 -21 143 -12 198 20 31
18 35 18 51 4 11 -10 28 -14 46 -11 16 2 49 7 74 10 166 20 158 17 166 62 3
16 7 36 9 44 2 8 7 29 10 45 2 17 7 41 10 55 3 14 8 38 10 53 3 15 12 55 19
88 17 69 16 66 16 79 0 7 45 38 58 40 2 0 1 -21 -3 -47z m-1562 -185 c-4 -18
-6 -41 -7 -50 0 -10 -3 -18 -6 -18 -6 0 -9 -21 -11 -91 -1 -59 29 -118 73
-143 18 -11 37 -26 41 -33 5 -7 12 -11 16 -8 5 2 14 -1 20 -9 9 -11 7 -14 -11
-13 -32 0 -191 -17 -228 -25 -10 -2 -14 4 -13 17 2 27 11 90 13 90 2 0 8 25
15 70 4 22 11 59 16 83 5 23 12 59 15 80 8 49 18 61 71 81 1 1 -1 -14 -4 -31z
m1238 -845 c-9 -16 -10 -16 -11 4 0 12 3 30 7 40 7 16 8 16 11 -4 2 -12 -1
-30 -7 -40z"/>
</g>
</svg>
